<svg width="800" height="392" viewBox="0 0 800 392" fill="none" xmlns="http://www.w3.org/2000/svg">
<g clip-path="url(#clip0_365_2)">
<rect width="800" height="392" fill="white"/>
<rect width="800" height="392" fill="white"/>
<path d="M153.943 128.439L153.833 128.537C153.786 128.579 153.767 128.604 153.762 128.61C153.759 128.615 153.758 128.616 153.757 128.62C153.755 128.624 153.745 128.648 153.734 128.703C153.723 128.759 153.711 128.855 153.711 129V263.4C153.711 263.587 153.721 263.739 154.046 264.064C154.287 264.305 154.472 264.4 154.911 264.4H198.911C214.251 264.4 226.785 259.065 236.871 248.372L153.943 128.439ZM153.943 128.439L154.046 128.336M153.943 128.439L154.046 128.336M154.046 128.336C154.287 128.095 154.472 128 154.911 128M154.046 128.336L154.911 128M154.911 128H198.911M154.911 128H198.911M198.911 128C214.397 128 226.914 133.343 236.851 144.007M198.911 128L236.851 144.007M236.851 144.007C246.672 154.555 251.711 168.08 251.711 185M236.851 144.007L251.711 185M251.711 185V207.4M251.711 185V207.4M251.711 207.4C251.711 224.466 246.665 237.973 236.872 248.371L251.711 207.4ZM129.464 128.336L129.568 128.439L129.678 128.537C129.725 128.579 129.744 128.604 129.749 128.61C129.752 128.615 129.753 128.616 129.754 128.62C129.756 128.624 129.766 128.648 129.777 128.703C129.788 128.759 129.8 128.855 129.8 129V263.4C129.8 263.587 129.79 263.739 129.464 264.064C129.139 264.39 128.987 264.4 128.8 264.4H101C100.813 264.4 100.661 264.39 100.336 264.064C100.01 263.739 100 263.587 100 263.4V129C100 128.855 100.012 128.759 100.023 128.703C100.034 128.648 100.044 128.624 100.046 128.62C100.047 128.616 100.048 128.615 100.051 128.61C100.056 128.604 100.075 128.579 100.122 128.537L100.232 128.439L100.336 128.336C100.661 128.01 100.813 128 101 128H128.8C128.987 128 129.139 128.01 129.464 128.336ZM217.818 232.652L217.869 232.579L217.917 232.504C222.204 225.834 224.111 217.322 224.111 207.4V184.8C224.111 174.994 222.198 166.556 217.917 159.896L217.858 159.805L217.796 159.717C215.639 156.661 212.72 154.39 209.216 152.863C205.94 151.248 202.489 150.4 198.911 150.4H187.311H182.311V155.4V237V242H187.311H201.311C208.201 242 213.747 238.513 217.818 232.652ZM379.046 128.336L379.15 128.439L379.259 128.537C379.307 128.579 379.326 128.604 379.33 128.61C379.334 128.615 379.334 128.616 379.336 128.62C379.337 128.624 379.347 128.648 379.358 128.703C379.369 128.759 379.381 128.855 379.381 129V263.4C379.381 263.587 379.371 263.739 379.046 264.064C378.72 264.39 378.568 264.4 378.381 264.4H350.581C350.438 264.4 350.243 264.378 349.981 264.284C349.772 264.093 349.629 263.905 349.522 263.719L349.518 263.711L349.513 263.702L314.913 203.702L305.581 187.521V206.2V263.4C305.581 263.587 305.571 263.739 305.246 264.064C304.92 264.39 304.768 264.4 304.581 264.4H276.781C276.409 264.4 276.219 264.331 276.023 264.164C275.842 263.927 275.781 263.72 275.781 263.4V129C275.781 128.648 275.835 128.48 275.854 128.43C275.868 128.393 275.878 128.374 275.917 128.336C276.157 128.095 276.342 128 276.781 128H304.581C304.811 128 304.945 128.025 305.007 128.041C305.036 128.049 305.052 128.055 305.06 128.058C305.066 128.063 305.077 128.074 305.093 128.093C305.131 128.136 305.21 128.238 305.309 128.436L305.35 128.518L305.394 128.598L339.394 190.798L348.524 207.502L348.781 188.467L349.581 129.067L349.581 129.034V129C349.581 128.648 349.635 128.48 349.654 128.43C349.668 128.393 349.678 128.374 349.717 128.336C349.957 128.095 350.142 128 350.581 128H378.381C378.568 128 378.72 128.01 379.046 128.336Z" stroke="black" stroke-width="10"/>
<path d="M610.377 189.479L610.345 189.456C609.881 189.125 609.508 188.721 609.236 188.246L610.377 189.479ZM610.377 189.479L610.412 189.496C610.941 189.761 611.486 189.9 612.04 189.9H624.247C625.091 189.9 625.831 189.578 626.445 188.964C627.06 188.35 627.382 187.61 627.382 186.767V127.788C627.382 126.903 627.07 126.151 626.435 125.581C625.822 124.974 625.086 124.655 624.247 124.655H612.04C611.15 124.655 610.378 124.969 609.755 125.591C609.179 126.167 608.906 126.914 608.906 127.785C608.906 127.786 608.906 127.787 608.906 127.788L608.58 151.946L594.568 126.327C594.3 125.794 593.935 125.37 593.465 125.08C592.992 124.79 592.444 124.655 591.842 124.655H579.635C578.744 124.655 577.972 124.969 577.349 125.591C576.773 126.167 576.5 126.916 576.5 127.788V186.767C576.5 187.592 576.78 188.325 577.329 188.942L577.339 188.953L577.349 188.964C577.972 189.586 578.744 189.9 579.635 189.9H591.842C592.685 189.9 593.425 189.578 594.039 188.964C594.654 188.35 594.976 187.61 594.976 186.767V163.533L609.235 188.244L610.377 189.479ZM431.719 144.088L431.719 144.088L431.722 144.095C432.049 145.077 432.223 146.421 432.223 148.15V164.65C432.223 166.381 432.049 167.691 431.725 168.608C431.395 169.541 430.871 170.485 430.141 171.441C428.916 172.816 427.084 173.541 424.556 173.541C422.024 173.541 420.191 172.815 418.965 171.435C418.242 170.544 417.72 169.635 417.391 168.709C417.121 167.782 416.976 166.438 416.976 164.65V148.15C416.976 146.421 417.121 145.07 417.395 144.079C417.727 143.033 418.251 142.067 418.972 141.181L418.973 141.18C420.075 139.816 421.866 139.083 424.468 139.083C427.125 139.083 428.977 139.843 430.14 141.269L430.145 141.275L430.15 141.281C430.866 142.107 431.389 143.041 431.719 144.088ZM504.515 162.561L504.52 162.556C508.847 158.472 511 153.127 511 146.57C511 140.014 508.848 134.697 504.519 130.671C500.248 126.644 494.494 124.655 487.315 124.655H466.326C465.441 124.655 464.672 124.965 464.051 125.581C463.416 126.151 463.104 126.903 463.104 127.788V186.767C463.104 187.61 463.426 188.35 464.041 188.964C464.664 189.586 465.436 189.9 466.326 189.9H478.446C479.336 189.9 480.108 189.586 480.731 188.964C481.345 188.35 481.668 187.61 481.668 186.767V168.573H487.315C494.381 168.573 500.131 166.582 504.515 162.561ZM491.472 141.063L491.484 141.081L491.498 141.098C492.57 142.383 493.138 144.215 493.138 146.658C493.138 148.971 492.605 150.781 491.584 152.131C491.102 152.663 490.542 153.087 489.902 153.407L489.894 153.411L489.886 153.416C489.35 153.708 488.511 153.881 487.315 153.881H481.053V139.259H487.315C489.311 139.259 490.655 139.889 491.472 141.063ZM523.844 188.942L523.853 188.953L523.864 188.964C524.487 189.586 525.259 189.9 526.149 189.9H561.365C562.251 189.9 563.003 189.588 563.573 188.953C564.181 188.341 564.5 187.606 564.5 186.767V177.815C564.5 176.934 564.192 176.186 563.564 175.618C562.995 174.99 562.246 174.682 561.365 174.682H541.491V163.833H557.589C558.359 163.833 559.007 163.563 559.441 162.971C559.854 162.408 560.021 161.624 560.021 160.7V151.748C560.021 150.91 559.702 150.174 559.095 149.562C558.524 148.927 557.772 148.615 556.887 148.615H541.491V139.873H561.278C562.15 139.873 562.899 139.601 563.475 139.025C564.098 138.402 564.412 137.63 564.412 136.74V127.788C564.412 126.908 564.104 126.16 563.476 125.591C562.907 124.963 562.158 124.655 561.278 124.655H526.149C525.259 124.655 524.487 124.969 523.864 125.591C523.288 126.167 523.015 126.916 523.015 127.788V186.767C523.015 187.592 523.294 188.325 523.844 188.942ZM450.612 148.238C450.612 140.405 448.202 134.205 443.339 129.704C438.488 125.157 432.182 122.9 424.468 122.9C416.81 122.9 410.534 125.158 405.684 129.705C400.879 134.207 398.5 140.406 398.5 148.238V164.65C398.5 172.481 400.908 178.68 405.77 183.181C410.45 187.676 416.73 189.9 424.556 189.9C432.325 189.9 438.604 187.675 443.34 183.182C448.203 178.681 450.612 172.482 450.612 164.65V148.238Z" fill="black" stroke="black"/>
<path d="M661.234 148.283L661.274 148.327L661.319 148.365C661.332 148.377 661.339 148.385 661.342 148.389C661.343 148.391 661.344 148.392 661.345 148.393C661.346 148.395 661.347 148.397 661.348 148.398C661.349 148.401 661.359 148.425 661.359 148.485V152.747C661.359 152.788 661.356 152.828 661.275 152.906L661.254 152.927L661.234 152.948L661.233 152.95C661.212 152.972 661.187 153 661.067 153H642.596C642.472 153 642.409 152.969 642.345 152.906L641.653 153.62L642.345 152.906C642.264 152.828 642.261 152.788 642.261 152.747V149.112C642.261 149.09 642.266 149.021 642.351 148.893L650.842 139.157L650.851 139.147L650.859 139.136C652.027 137.72 652.899 136.456 653.436 135.355C653.939 134.377 654.231 133.413 654.231 132.484C654.231 131.422 654.035 130.438 653.471 129.71C652.962 129.013 652.173 128.768 651.38 128.768C650.413 128.768 649.61 129.199 649.055 129.986L649.028 130.024L649.005 130.065C648.787 130.445 648.655 130.874 648.584 131.325L648.577 131.363L648.574 131.402C648.543 131.804 648.528 132.35 648.528 133.027V133.278C648.528 133.371 648.507 133.418 648.444 133.479L648.423 133.5L648.403 133.521C648.403 133.522 648.402 133.523 648.402 133.523C648.381 133.545 648.356 133.573 648.236 133.573H642.381C642.334 133.573 642.277 133.565 642.206 133.539C642.168 133.503 642.136 133.46 642.107 133.404L642.064 133.321L642.015 133.226L642.003 133.211C642.003 133.206 642.003 133.2 642.003 133.194V133.185L642.003 133.177C641.975 131.611 642.155 130.362 642.503 129.397C642.851 128.434 643.426 127.54 644.251 126.715L644.251 126.715L644.26 126.706C645.992 124.926 648.328 124 651.38 124C654.48 124 656.764 124.802 658.365 126.283L658.365 126.283L658.37 126.288C660.029 127.799 660.886 129.828 660.886 132.484C660.886 134.207 660.414 135.815 659.453 137.329C658.687 138.486 657.965 139.529 657.288 140.46C656.626 141.37 655.82 142.343 654.864 143.379L654.849 143.396L654.834 143.413L652.164 146.588L650.782 148.232H652.93H661.067C661.187 148.232 661.212 148.259 661.233 148.281L661.234 148.283ZM690.938 152.61L690.957 152.641L690.979 152.671C690.988 152.683 690.994 152.692 690.996 152.697C690.998 152.701 690.999 152.704 691 152.705C691 152.707 691 152.715 690.994 152.733C690.988 152.751 690.975 152.784 690.944 152.832L690.933 152.849L690.923 152.866C690.9 152.905 690.874 152.932 690.826 152.958C690.774 152.988 690.725 153 690.665 153H683.044C682.875 153 682.822 152.959 682.759 152.864C682.759 152.863 682.758 152.863 682.758 152.863L676.947 144.049L675.112 141.267V144.6V152.747C675.112 152.788 675.109 152.828 675.028 152.906L675.007 152.927L674.987 152.948L674.985 152.95C674.965 152.972 674.94 153 674.82 153H668.835C668.764 153 668.709 152.985 668.627 152.906L667.931 153.624L668.627 152.906C668.547 152.828 668.544 152.788 668.544 152.747V124.671C668.544 124.611 668.554 124.587 668.555 124.584C668.556 124.582 668.558 124.579 668.561 124.575C668.564 124.571 668.571 124.563 668.584 124.551L668.606 124.532L668.627 124.511C668.709 124.433 668.764 124.418 668.835 124.418H674.82C674.94 124.418 674.965 124.445 674.985 124.467L674.987 124.469L675.027 124.513L675.071 124.551C675.085 124.563 675.092 124.571 675.095 124.575C675.098 124.579 675.099 124.582 675.1 124.584C675.102 124.587 675.112 124.611 675.112 124.671V131.941V135.212L676.941 132.5L682.297 124.558C682.388 124.452 682.472 124.418 682.614 124.418H690.019C690.122 124.418 690.202 124.435 690.305 124.575C690.309 124.589 690.311 124.607 690.311 124.629C690.311 124.64 690.306 124.716 690.233 124.871L681.835 136.969L681.458 137.511L681.81 138.071L690.938 152.61Z" stroke="black" stroke-width="2"/>
<path d="M661.798 182.953L661.837 182.997L661.881 183.036C661.914 183.065 661.941 183.09 661.941 183.207V187.684C661.941 187.749 661.928 187.806 661.838 187.895L661.817 187.916L661.798 187.938C661.769 187.97 661.74 188 661.614 188H642.639C642.512 188 642.444 187.967 642.371 187.895C642.281 187.806 642.268 187.749 642.268 187.684V183.866C642.268 183.825 642.279 183.74 642.373 183.597L651.096 173.368L651.105 173.358L651.114 173.347C652.313 171.86 653.205 170.536 653.754 169.385C654.268 168.363 654.564 167.362 654.564 166.4C654.564 165.293 654.364 164.277 653.795 163.526C653.282 162.807 652.48 162.548 651.662 162.548C650.669 162.548 649.852 163.001 649.291 163.814L649.264 163.852L649.242 163.893C649.022 164.285 648.889 164.727 648.816 165.194L648.811 165.232L648.808 165.27C648.775 165.689 648.76 166.26 648.76 166.971V167.234C648.76 167.353 648.73 167.418 648.658 167.49L648.637 167.51L648.617 167.532C648.589 167.564 648.559 167.594 648.433 167.594H642.418C642.369 167.594 642.309 167.586 642.233 167.557C642.189 167.516 642.151 167.465 642.117 167.398L642.073 167.311L642.025 167.216L642.004 167.19C642.004 167.179 642.003 167.164 642.003 167.146V167.138L642.003 167.129C641.975 165.479 642.16 164.158 642.521 163.135C642.881 162.113 643.477 161.168 644.328 160.297L644.328 160.297L644.337 160.288C646.123 158.411 648.528 157.439 651.662 157.439C654.846 157.439 657.196 158.28 658.848 159.842L658.848 159.842L658.853 159.847C660.566 161.444 661.454 163.591 661.454 166.4C661.454 168.225 660.965 169.927 659.973 171.525C659.185 172.741 658.443 173.838 657.747 174.817C657.066 175.774 656.236 176.797 655.254 177.886L655.239 177.903L655.224 177.921L652.482 181.256L651.138 182.891H653.254H661.614C661.74 182.891 661.769 182.921 661.798 182.953ZM686.889 171.186L685.833 172.014L686.928 172.789C687.663 173.311 688.235 173.896 688.661 174.542L688.674 174.562L688.688 174.581C689.546 175.757 690 177.224 690 179.039C690 181.858 688.986 184.018 686.972 185.628C685 187.187 682.475 188 679.323 188C676.605 188 674.269 187.242 672.272 185.743L672.266 185.739L672.261 185.734C670.247 184.267 669.236 182.195 669.265 179.376L669.319 179.132L669.347 179.05C669.361 179.007 669.375 178.99 669.412 178.967L669.448 178.945L669.482 178.919C669.545 178.873 669.601 178.854 669.681 178.854H675.652C675.778 178.854 675.808 178.884 675.836 178.916L675.876 178.96L675.92 178.999C675.952 179.027 675.979 179.053 675.979 179.17C675.979 180.135 676.296 181.02 676.894 181.798L676.925 181.838L676.96 181.876C677.593 182.545 678.402 182.891 679.323 182.891C680.401 182.891 681.361 182.55 682.107 181.811C682.853 181.071 683.154 180.064 683.154 178.951C683.154 177.645 682.925 176.43 682.162 175.663C681.453 174.921 680.426 174.66 679.323 174.66H676.095C676.021 174.66 675.96 174.644 675.87 174.555C675.78 174.466 675.768 174.409 675.768 174.343V169.999C675.768 169.881 675.795 169.856 675.827 169.827L675.849 169.808L675.87 169.787C675.96 169.698 676.021 169.682 676.095 169.682H679.323C680.303 169.682 681.278 169.435 681.879 168.642C682.493 167.888 682.712 166.86 682.712 165.742C682.712 164.783 682.43 163.912 681.833 163.191C681.244 162.415 680.317 162.153 679.368 162.153C678.555 162.153 677.826 162.44 677.248 163.014L677.223 163.039L677.199 163.066C676.632 163.714 676.377 164.516 676.377 165.391C676.377 165.51 676.347 165.575 676.275 165.647L676.275 165.647C676.255 165.666 676.214 165.707 676.051 165.707H670.035C669.951 165.707 669.887 165.694 669.833 165.672C669.796 165.629 669.767 165.577 669.745 165.511C669.745 165.511 669.745 165.511 669.745 165.511L669.701 165.38L669.678 165.312L669.664 165.285L669.664 165.271C669.586 162.871 670.474 160.913 672.392 159.321C674.321 157.782 676.629 157 679.368 157C682.502 157 684.949 157.775 686.795 159.24C688.641 160.717 689.602 162.821 689.602 165.698C689.602 167.092 689.199 168.384 688.371 169.595C687.852 170.298 687.356 170.82 686.889 171.186Z" stroke="black" stroke-width="2"/>
<path d="M723.794 123.4C724.142 123.4 724.424 123.521 724.638 123.763C724.879 123.978 725 124.261 725 124.611V168.098C725 168.421 724.879 168.704 724.638 168.946C724.424 169.188 724.142 169.309 723.794 169.309H707.206C706.858 169.309 706.563 169.188 706.322 168.946C706.107 168.704 706 168.421 706 168.098V124.611C706 124.261 706.107 123.978 706.322 123.763C706.563 123.521 706.858 123.4 707.206 123.4H723.794ZM723.754 175.256C724.102 175.256 724.384 175.377 724.598 175.619C724.839 175.834 724.96 176.117 724.96 176.467V187.189C724.96 187.512 724.839 187.794 724.598 188.037C724.384 188.279 724.102 188.4 723.754 188.4H707.246C706.898 188.4 706.603 188.279 706.362 188.037C706.121 187.794 706 187.512 706 187.189V176.467C706 176.117 706.121 175.834 706.362 175.619C706.603 175.377 706.898 175.256 707.246 175.256H723.754Z" fill="black"/>
<mask id="path-7-inside-1_365_2" fill="white">
<path d="M534.641 203.778C539.883 208.631 542.505 215.329 542.505 223.872V242.025C542.505 250.567 539.883 257.266 534.641 262.119C529.527 266.973 522.731 269.4 514.252 269.4C505.709 269.4 498.913 266.973 493.864 262.119C488.621 257.266 486 250.567 486 242.025V223.872C486 215.329 488.589 208.631 493.767 203.778C499.01 198.859 505.806 196.4 514.155 196.4C522.569 196.4 529.398 198.859 534.641 203.778ZM505.32 242.025C505.32 244.031 505.482 245.584 505.806 246.684C506.194 247.785 506.809 248.852 507.65 249.888C509.139 251.571 511.34 252.412 514.252 252.412C517.165 252.412 519.366 251.571 520.854 249.888C521.696 248.788 522.311 247.688 522.699 246.587C523.087 245.487 523.281 243.966 523.281 242.025V223.775C523.281 221.833 523.087 220.28 522.699 219.115C522.311 217.886 521.696 216.786 520.854 215.815C519.43 214.067 517.197 213.194 514.155 213.194C511.178 213.194 509.01 214.035 507.65 215.718C506.809 216.753 506.194 217.886 505.806 219.115C505.482 220.28 505.32 221.833 505.32 223.775V242.025Z"/>
<path d="M608.072 242.899C608.072 251.118 605.483 257.622 600.305 262.411C595.256 267.07 588.687 269.4 580.596 269.4C572.635 269.4 566.066 267.07 560.888 262.411C555.774 257.622 553.218 251.118 553.218 242.899V200.283C553.218 199.442 553.477 198.762 553.994 198.244C554.577 197.662 555.289 197.371 556.13 197.371H569.528C570.37 197.371 571.082 197.662 571.664 198.244C572.247 198.762 572.538 199.442 572.538 200.283V242.899C572.538 244.646 572.7 246.005 573.023 246.976C573.347 247.946 573.93 248.917 574.771 249.888C576.195 251.506 578.137 252.315 580.596 252.315C583.121 252.315 585.095 251.506 586.519 249.888C587.295 248.917 587.845 247.946 588.169 246.976C588.557 246.005 588.752 244.646 588.752 242.899V200.283C588.752 199.442 589.01 198.762 589.528 198.244C590.111 197.662 590.823 197.371 591.664 197.371H605.159C606.001 197.371 606.68 197.662 607.198 198.244C607.781 198.762 608.072 199.442 608.072 200.283V242.899Z"/>
<path d="M663.68 233.482C667.758 237.171 669.797 242.187 669.797 248.529C669.797 255.001 667.402 260.145 662.612 263.964C658.017 267.588 652.062 269.4 644.748 269.4C637.499 269.4 631.285 267.491 626.107 263.673C623.389 261.731 621.447 259.466 620.282 256.877C619.182 254.289 618.664 250.923 618.729 246.782C618.729 246.587 618.793 246.296 618.923 245.908L619.02 245.617C619.214 245.034 619.57 244.581 620.088 244.258C620.606 243.869 621.156 243.675 621.738 243.675H634.942C635.719 243.675 636.399 243.966 636.981 244.549C637.564 245.067 637.855 245.746 637.855 246.587C637.855 248.464 637.92 249.726 638.049 250.373C638.243 251.02 638.567 251.571 639.02 252.024C640.25 253.253 642.159 253.868 644.748 253.868C646.755 253.868 648.211 253.415 649.117 252.509C650.023 251.473 650.476 250.179 650.476 248.626C650.476 246.749 650.023 245.358 649.117 244.452C647.823 243.157 645.687 241.928 642.709 240.763C635.266 238.368 629.603 235.521 625.719 232.22C621.382 228.661 619.214 223.743 619.214 217.465C619.214 211.123 621.641 206.01 626.496 202.127C631.091 198.309 636.949 196.4 644.068 196.4C651.577 196.4 657.661 198.438 662.321 202.516C664.586 204.522 666.204 206.69 667.175 209.02C668.146 211.349 668.599 214.294 668.534 217.853L668.34 218.727L668.243 219.018C667.984 219.601 667.596 220.086 667.078 220.474C666.625 220.798 666.075 220.96 665.428 220.96H652.321C651.544 220.96 650.865 220.669 650.282 220.086C649.7 219.504 649.408 218.824 649.408 218.048C649.408 216.494 649.344 215.491 649.214 215.038C649.149 214.585 648.923 214.165 648.534 213.776C647.564 212.611 645.978 212.029 643.777 212.029C642.224 212.029 640.962 212.514 639.991 213.485C639.085 214.456 638.632 215.782 638.632 217.465C638.632 218.824 639.085 219.924 639.991 220.766C641.285 221.93 643.777 223.322 647.467 224.94C654.522 227.075 659.926 229.923 663.68 233.482Z"/>
<path d="M683.36 269.4C682.518 269.4 681.807 269.109 681.224 268.526C680.706 267.944 680.447 267.264 680.447 266.488V201.254C680.447 200.412 680.706 199.733 681.224 199.215C681.807 198.633 682.518 198.341 683.36 198.341H722.195C723.036 198.341 723.716 198.633 724.234 199.215C724.816 199.733 725.107 200.412 725.107 201.254V211.155C725.107 211.997 724.816 212.708 724.234 213.291C723.716 213.809 723.036 214.067 722.195 214.067H699.768V224.843H717.34C718.182 224.843 718.861 225.134 719.379 225.716C719.962 226.299 720.253 226.978 720.253 227.755V237.657C720.253 239.598 719.541 240.569 718.117 240.569H699.768V253.674H722.292C723.133 253.674 723.813 253.965 724.331 254.548C724.913 255.065 725.204 255.745 725.204 256.586V266.488C725.204 267.264 724.913 267.944 724.331 268.526C723.813 269.109 723.133 269.4 722.292 269.4H683.36Z"/>
<path d="M475.386 231.902L439.946 196.799C439.691 196.546 439.388 196.345 439.054 196.208C438.721 196.071 438.363 196 438.002 196C437.64 196 437.283 196.071 436.949 196.208C436.615 196.345 436.312 196.546 436.057 196.799L400.618 231.902C399.585 232.925 399 234.315 399 235.765C399 238.776 401.469 241.223 404.507 241.223H408.241V266.271C408.241 267.78 409.471 269 410.994 269H432.495V249.897H442.132V269H465.009C466.532 269 467.763 267.78 467.763 266.271V241.223H471.497C472.959 241.223 474.362 240.652 475.394 239.62C477.537 237.488 477.537 234.034 475.386 231.902Z"/>
</mask>
<path d="M534.641 203.778C539.883 208.631 542.505 215.329 542.505 223.872V242.025C542.505 250.567 539.883 257.266 534.641 262.119C529.527 266.973 522.731 269.4 514.252 269.4C505.709 269.4 498.913 266.973 493.864 262.119C488.621 257.266 486 250.567 486 242.025V223.872C486 215.329 488.589 208.631 493.767 203.778C499.01 198.859 505.806 196.4 514.155 196.4C522.569 196.4 529.398 198.859 534.641 203.778ZM505.32 242.025C505.32 244.031 505.482 245.584 505.806 246.684C506.194 247.785 506.809 248.852 507.65 249.888C509.139 251.571 511.34 252.412 514.252 252.412C517.165 252.412 519.366 251.571 520.854 249.888C521.696 248.788 522.311 247.688 522.699 246.587C523.087 245.487 523.281 243.966 523.281 242.025V223.775C523.281 221.833 523.087 220.28 522.699 219.115C522.311 217.886 521.696 216.786 520.854 215.815C519.43 214.067 517.197 213.194 514.155 213.194C511.178 213.194 509.01 214.035 507.65 215.718C506.809 216.753 506.194 217.886 505.806 219.115C505.482 220.28 505.32 221.833 505.32 223.775V242.025Z" fill="black"/>
<path d="M608.072 242.899C608.072 251.118 605.483 257.622 600.305 262.411C595.256 267.07 588.687 269.4 580.596 269.4C572.635 269.4 566.066 267.07 560.888 262.411C555.774 257.622 553.218 251.118 553.218 242.899V200.283C553.218 199.442 553.477 198.762 553.994 198.244C554.577 197.662 555.289 197.371 556.13 197.371H569.528C570.37 197.371 571.082 197.662 571.664 198.244C572.247 198.762 572.538 199.442 572.538 200.283V242.899C572.538 244.646 572.7 246.005 573.023 246.976C573.347 247.946 573.93 248.917 574.771 249.888C576.195 251.506 578.137 252.315 580.596 252.315C583.121 252.315 585.095 251.506 586.519 249.888C587.295 248.917 587.845 247.946 588.169 246.976C588.557 246.005 588.752 244.646 588.752 242.899V200.283C588.752 199.442 589.01 198.762 589.528 198.244C590.111 197.662 590.823 197.371 591.664 197.371H605.159C606.001 197.371 606.68 197.662 607.198 198.244C607.781 198.762 608.072 199.442 608.072 200.283V242.899Z" fill="black"/>
<path d="M663.68 233.482C667.758 237.171 669.797 242.187 669.797 248.529C669.797 255.001 667.402 260.145 662.612 263.964C658.017 267.588 652.062 269.4 644.748 269.4C637.499 269.4 631.285 267.491 626.107 263.673C623.389 261.731 621.447 259.466 620.282 256.877C619.182 254.289 618.664 250.923 618.729 246.782C618.729 246.587 618.793 246.296 618.923 245.908L619.02 245.617C619.214 245.034 619.57 244.581 620.088 244.258C620.606 243.869 621.156 243.675 621.738 243.675H634.942C635.719 243.675 636.399 243.966 636.981 244.549C637.564 245.067 637.855 245.746 637.855 246.587C637.855 248.464 637.92 249.726 638.049 250.373C638.243 251.02 638.567 251.571 639.02 252.024C640.25 253.253 642.159 253.868 644.748 253.868C646.755 253.868 648.211 253.415 649.117 252.509C650.023 251.473 650.476 250.179 650.476 248.626C650.476 246.749 650.023 245.358 649.117 244.452C647.823 243.157 645.687 241.928 642.709 240.763C635.266 238.368 629.603 235.521 625.719 232.22C621.382 228.661 619.214 223.743 619.214 217.465C619.214 211.123 621.641 206.01 626.496 202.127C631.091 198.309 636.949 196.4 644.068 196.4C651.577 196.4 657.661 198.438 662.321 202.516C664.586 204.522 666.204 206.69 667.175 209.02C668.146 211.349 668.599 214.294 668.534 217.853L668.34 218.727L668.243 219.018C667.984 219.601 667.596 220.086 667.078 220.474C666.625 220.798 666.075 220.96 665.428 220.96H652.321C651.544 220.96 650.865 220.669 650.282 220.086C649.7 219.504 649.408 218.824 649.408 218.048C649.408 216.494 649.344 215.491 649.214 215.038C649.149 214.585 648.923 214.165 648.534 213.776C647.564 212.611 645.978 212.029 643.777 212.029C642.224 212.029 640.962 212.514 639.991 213.485C639.085 214.456 638.632 215.782 638.632 217.465C638.632 218.824 639.085 219.924 639.991 220.766C641.285 221.93 643.777 223.322 647.467 224.94C654.522 227.075 659.926 229.923 663.68 233.482Z" fill="black"/>
<path d="M683.36 269.4C682.518 269.4 681.807 269.109 681.224 268.526C680.706 267.944 680.447 267.264 680.447 266.488V201.254C680.447 200.412 680.706 199.733 681.224 199.215C681.807 198.633 682.518 198.341 683.36 198.341H722.195C723.036 198.341 723.716 198.633 724.234 199.215C724.816 199.733 725.107 200.412 725.107 201.254V211.155C725.107 211.997 724.816 212.708 724.234 213.291C723.716 213.809 723.036 214.067 722.195 214.067H699.768V224.843H717.34C718.182 224.843 718.861 225.134 719.379 225.716C719.962 226.299 720.253 226.978 720.253 227.755V237.657C720.253 239.598 719.541 240.569 718.117 240.569H699.768V253.674H722.292C723.133 253.674 723.813 253.965 724.331 254.548C724.913 255.065 725.204 255.745 725.204 256.586V266.488C725.204 267.264 724.913 267.944 724.331 268.526C723.813 269.109 723.133 269.4 722.292 269.4H683.36Z" fill="black"/>
<path d="M475.386 231.902L439.946 196.799C439.691 196.546 439.388 196.345 439.054 196.208C438.721 196.071 438.363 196 438.002 196C437.64 196 437.283 196.071 436.949 196.208C436.615 196.345 436.312 196.546 436.057 196.799L400.618 231.902C399.585 232.925 399 234.315 399 235.765C399 238.776 401.469 241.223 404.507 241.223H408.241V266.271C408.241 267.78 409.471 269 410.994 269H432.495V249.897H442.132V269H465.009C466.532 269 467.763 267.78 467.763 266.271V241.223H471.497C472.959 241.223 474.362 240.652 475.394 239.62C477.537 237.488 477.537 234.034 475.386 231.902Z" fill="black"/>
<path d="M534.641 203.778C539.883 208.631 542.505 215.329 542.505 223.872V242.025C542.505 250.567 539.883 257.266 534.641 262.119C529.527 266.973 522.731 269.4 514.252 269.4C505.709 269.4 498.913 266.973 493.864 262.119C488.621 257.266 486 250.567 486 242.025V223.872C486 215.329 488.589 208.631 493.767 203.778C499.01 198.859 505.806 196.4 514.155 196.4C522.569 196.4 529.398 198.859 534.641 203.778ZM505.32 242.025C505.32 244.031 505.482 245.584 505.806 246.684C506.194 247.785 506.809 248.852 507.65 249.888C509.139 251.571 511.34 252.412 514.252 252.412C517.165 252.412 519.366 251.571 520.854 249.888C521.696 248.788 522.311 247.688 522.699 246.587C523.087 245.487 523.281 243.966 523.281 242.025V223.775C523.281 221.833 523.087 220.28 522.699 219.115C522.311 217.886 521.696 216.786 520.854 215.815C519.43 214.067 517.197 213.194 514.155 213.194C511.178 213.194 509.01 214.035 507.65 215.718C506.809 216.753 506.194 217.886 505.806 219.115C505.482 220.28 505.32 221.833 505.32 223.775V242.025Z" stroke="black" stroke-width="2" mask="url(#path-7-inside-1_365_2)"/>
<path d="M608.072 242.899C608.072 251.118 605.483 257.622 600.305 262.411C595.256 267.07 588.687 269.4 580.596 269.4C572.635 269.4 566.066 267.07 560.888 262.411C555.774 257.622 553.218 251.118 553.218 242.899V200.283C553.218 199.442 553.477 198.762 553.994 198.244C554.577 197.662 555.289 197.371 556.13 197.371H569.528C570.37 197.371 571.082 197.662 571.664 198.244C572.247 198.762 572.538 199.442 572.538 200.283V242.899C572.538 244.646 572.7 246.005 573.023 246.976C573.347 247.946 573.93 248.917 574.771 249.888C576.195 251.506 578.137 252.315 580.596 252.315C583.121 252.315 585.095 251.506 586.519 249.888C587.295 248.917 587.845 247.946 588.169 246.976C588.557 246.005 588.752 244.646 588.752 242.899V200.283C588.752 199.442 589.01 198.762 589.528 198.244C590.111 197.662 590.823 197.371 591.664 197.371H605.159C606.001 197.371 606.68 197.662 607.198 198.244C607.781 198.762 608.072 199.442 608.072 200.283V242.899Z" stroke="black" stroke-width="2" mask="url(#path-7-inside-1_365_2)"/>
<path d="M663.68 233.482C667.758 237.171 669.797 242.187 669.797 248.529C669.797 255.001 667.402 260.145 662.612 263.964C658.017 267.588 652.062 269.4 644.748 269.4C637.499 269.4 631.285 267.491 626.107 263.673C623.389 261.731 621.447 259.466 620.282 256.877C619.182 254.289 618.664 250.923 618.729 246.782C618.729 246.587 618.793 246.296 618.923 245.908L619.02 245.617C619.214 245.034 619.57 244.581 620.088 244.258C620.606 243.869 621.156 243.675 621.738 243.675H634.942C635.719 243.675 636.399 243.966 636.981 244.549C637.564 245.067 637.855 245.746 637.855 246.587C637.855 248.464 637.92 249.726 638.049 250.373C638.243 251.02 638.567 251.571 639.02 252.024C640.25 253.253 642.159 253.868 644.748 253.868C646.755 253.868 648.211 253.415 649.117 252.509C650.023 251.473 650.476 250.179 650.476 248.626C650.476 246.749 650.023 245.358 649.117 244.452C647.823 243.157 645.687 241.928 642.709 240.763C635.266 238.368 629.603 235.521 625.719 232.22C621.382 228.661 619.214 223.743 619.214 217.465C619.214 211.123 621.641 206.01 626.496 202.127C631.091 198.309 636.949 196.4 644.068 196.4C651.577 196.4 657.661 198.438 662.321 202.516C664.586 204.522 666.204 206.69 667.175 209.02C668.146 211.349 668.599 214.294 668.534 217.853L668.34 218.727L668.243 219.018C667.984 219.601 667.596 220.086 667.078 220.474C666.625 220.798 666.075 220.96 665.428 220.96H652.321C651.544 220.96 650.865 220.669 650.282 220.086C649.7 219.504 649.408 218.824 649.408 218.048C649.408 216.494 649.344 215.491 649.214 215.038C649.149 214.585 648.923 214.165 648.534 213.776C647.564 212.611 645.978 212.029 643.777 212.029C642.224 212.029 640.962 212.514 639.991 213.485C639.085 214.456 638.632 215.782 638.632 217.465C638.632 218.824 639.085 219.924 639.991 220.766C641.285 221.93 643.777 223.322 647.467 224.94C654.522 227.075 659.926 229.923 663.68 233.482Z" stroke="black" stroke-width="2" mask="url(#path-7-inside-1_365_2)"/>
<path d="M683.36 269.4C682.518 269.4 681.807 269.109 681.224 268.526C680.706 267.944 680.447 267.264 680.447 266.488V201.254C680.447 200.412 680.706 199.733 681.224 199.215C681.807 198.633 682.518 198.341 683.36 198.341H722.195C723.036 198.341 723.716 198.633 724.234 199.215C724.816 199.733 725.107 200.412 725.107 201.254V211.155C725.107 211.997 724.816 212.708 724.234 213.291C723.716 213.809 723.036 214.067 722.195 214.067H699.768V224.843H717.34C718.182 224.843 718.861 225.134 719.379 225.716C719.962 226.299 720.253 226.978 720.253 227.755V237.657C720.253 239.598 719.541 240.569 718.117 240.569H699.768V253.674H722.292C723.133 253.674 723.813 253.965 724.331 254.548C724.913 255.065 725.204 255.745 725.204 256.586V266.488C725.204 267.264 724.913 267.944 724.331 268.526C723.813 269.109 723.133 269.4 722.292 269.4H683.36Z" stroke="black" stroke-width="2" mask="url(#path-7-inside-1_365_2)"/>
<path d="M475.386 231.902L439.946 196.799C439.691 196.546 439.388 196.345 439.054 196.208C438.721 196.071 438.363 196 438.002 196C437.64 196 437.283 196.071 436.949 196.208C436.615 196.345 436.312 196.546 436.057 196.799L400.618 231.902C399.585 232.925 399 234.315 399 235.765C399 238.776 401.469 241.223 404.507 241.223H408.241V266.271C408.241 267.78 409.471 269 410.994 269H432.495V249.897H442.132V269H465.009C466.532 269 467.763 267.78 467.763 266.271V241.223H471.497C472.959 241.223 474.362 240.652 475.394 239.62C477.537 237.488 477.537 234.034 475.386 231.902Z" stroke="black" stroke-width="2" mask="url(#path-7-inside-1_365_2)"/>
</g>
<defs>
<clipPath id="clip0_365_2">
<rect width="800" height="392" fill="white"/>
</clipPath>
</defs>
</svg>
