<svg width="2285" height="608" viewBox="0 0 2285 608" fill="none" xmlns="http://www.w3.org/2000/svg">
<rect width="234.088" height="251.868" rx="8" transform="matrix(0.862566 -0.505945 0.869725 0.493537 224.538 118.436)" fill="white"/>
<path d="M480.351 599.032C475.018 602.11 471.088 603.082 468.562 601.948C466.317 600.328 465.194 596.441 465.194 590.287L465.196 532.465C465.196 526.31 466.319 521.289 468.565 517.402C471.091 513.029 475.021 509.304 480.354 506.226L522.036 482.173L522.042 318.912L480.359 342.965C475.026 346.042 471.096 347.014 468.57 345.881C466.325 344.261 465.202 340.374 465.202 334.219L465.204 275.426C465.204 269.271 466.327 264.25 468.573 260.363C471.099 255.99 475.029 252.264 480.362 249.187L659.724 145.685C665.057 142.608 668.846 141.879 671.091 143.498C673.618 144.632 674.881 148.276 674.88 154.431L674.878 213.224C674.878 219.379 673.615 224.643 671.089 229.016C668.843 232.903 665.054 236.386 659.721 239.463L618.88 263.03L618.875 426.292L659.715 402.724C665.049 399.647 668.838 398.918 671.083 400.537C673.609 401.671 674.872 405.315 674.872 411.47L674.87 469.292C674.87 475.446 673.607 480.71 671.081 485.083C668.835 488.971 665.046 492.453 659.712 495.531L480.351 599.032Z" fill="white"/>
<path d="M413.185 599.268L218.144 486.718C212.819 483.645 208.896 480.088 206.374 476.045C204.132 471.841 203.011 466.667 203.011 460.522L203.001 146.176C203 140.032 204.121 136.312 206.363 135.019C208.885 133.564 212.808 134.372 218.133 137.445L413.174 249.995C418.498 253.067 422.281 256.705 424.523 260.91C427.045 264.952 428.307 270.046 428.307 276.191L428.309 332.947C428.309 339.092 427.048 342.892 424.526 344.347C422.284 345.641 418.501 344.751 413.177 341.679L297.161 274.731L297.162 312.084L379.13 359.384C384.454 362.456 388.237 366.095 390.479 370.299C393.001 374.342 394.263 379.435 394.263 385.58L394.265 437.486C394.265 443.63 393.004 447.43 390.482 448.885C388.24 450.179 384.457 449.29 379.133 446.217L297.165 398.917L297.166 440.636L413.182 507.583C418.506 510.656 422.29 514.294 424.532 518.499C427.054 522.541 428.315 527.635 428.315 533.779L428.317 590.536C428.317 596.681 427.056 600.481 424.534 601.936C422.292 603.23 418.509 602.34 413.185 599.268Z" fill="white"/>
<path d="M746 266C742.6 266 740 263.2 740 260V125.6C740 122.2 742.6 119.6 746 119.6H826C829.4 119.6 832 122.2 832 125.6V146C832 149.4 829.4 152 826 152H779.8V174.2H816C819.4 174.2 822 177 822 180.2V200.6C822 204 821 206.6 817.6 206.6H779.8V233.6H826.2C829.6 233.6 832.2 236.2 832.2 239.6V260C832.2 263.2 829.6 266 826.2 266H746ZM988.85 119.6C992.25 119.6 994.85 122.2 994.85 125.6V260C994.85 263.2 992.25 266 988.85 266H961.25C958.05 266 955.25 263.2 955.25 260L956.45 206.4L940.65 261.8C939.85 264.2 937.45 266 934.85 266H916.25C913.65 266 911.25 264.2 910.45 261.8L894.45 205.6L896.05 260C896.05 263.2 893.25 266 890.05 266H862.25C859.05 266 856.25 263.2 856.25 260V125.6C856.25 122.2 859.05 119.6 862.25 119.6H896.25C899.05 119.6 901.45 121.4 902.25 124L925.45 203L949.05 124C949.65 121.4 952.05 119.6 954.85 119.6H988.85ZM1118.99 130.8C1129.79 140.8 1135.19 154.8 1135.19 172.2V209.6C1135.19 227.2 1129.79 241 1118.99 251C1108.39 261 1094.19 266 1076.99 266C1059.59 266 1045.39 261 1034.99 251C1024.19 241 1018.79 227.2 1018.79 209.6V172.2C1018.79 154.8 1024.19 140.8 1034.79 130.8C1045.39 120.8 1059.59 115.6 1076.79 115.6C1094.19 115.6 1108.39 120.8 1118.99 130.8ZM1058.59 172V209.6C1058.59 218.2 1060.19 221.8 1063.39 225.8C1066.39 229.2 1070.79 231 1076.99 231C1083.19 231 1087.59 229.2 1090.59 225.8C1093.79 221.8 1095.59 218.2 1095.59 209.6V172C1095.59 163.6 1093.79 159.4 1090.59 155.6C1087.59 152 1082.99 150.2 1076.79 150.2C1070.59 150.2 1066.19 152 1063.39 155.4C1060.19 159.4 1058.59 163.6 1058.59 172ZM1261.75 125.6V146C1261.75 149.4 1258.95 152 1255.75 152H1228.15V260C1228.15 263.2 1225.35 266 1221.95 266H1194.15C1190.75 266 1188.15 263.2 1188.15 260V152H1161.35C1158.15 152 1155.35 149.4 1155.35 146V125.6C1155.35 122.2 1158.15 119.6 1161.35 119.6H1255.75C1258.95 119.6 1261.75 122.2 1261.75 125.6ZM1319.46 119.6C1322.66 119.6 1325.46 122.2 1325.46 125.6V260C1325.46 263.2 1322.66 266 1319.46 266H1291.66C1288.46 266 1285.66 263.2 1285.66 260V125.6C1285.66 122.2 1288.46 119.6 1291.66 119.6H1319.46ZM1449.58 130.8C1460.38 140.8 1465.78 154.8 1465.78 172.2V209.6C1465.78 227.2 1460.38 241 1449.58 251C1438.98 261 1424.78 266 1407.58 266C1390.18 266 1375.98 261 1365.58 251C1354.78 241 1349.38 227.2 1349.38 209.6V172.2C1349.38 154.8 1354.78 140.8 1365.38 130.8C1375.98 120.8 1390.18 115.6 1407.38 115.6C1424.78 115.6 1438.98 120.8 1449.58 130.8ZM1389.18 172V209.6C1389.18 218.2 1390.78 221.8 1393.98 225.8C1396.98 229.2 1401.38 231 1407.58 231C1413.78 231 1418.18 229.2 1421.18 225.8C1424.38 221.8 1426.18 218.2 1426.18 209.6V172C1426.18 163.6 1424.38 159.4 1421.18 155.6C1418.18 152 1413.58 150.2 1407.38 150.2C1401.18 150.2 1396.78 152 1393.98 155.4C1390.78 159.4 1389.18 163.6 1389.18 172ZM1597.44 119.6C1600.64 119.6 1603.44 122.2 1603.44 125.6V260C1603.44 263.2 1600.64 266 1597.44 266H1569.64C1567.44 266 1565.24 264.8 1564.24 262.8L1529.64 202.8V260C1529.64 263.2 1526.84 266 1523.64 266H1495.84C1492.44 266 1489.84 263.2 1489.84 260V125.6C1489.84 122.2 1492.44 119.6 1495.84 119.6H1523.64C1525.84 119.6 1527.84 120.8 1528.84 122.8L1562.84 185L1563.64 125.6C1563.64 122.2 1566.24 119.6 1569.64 119.6H1597.44ZM1704.68 123.8L1745.28 258.2C1745.88 260 1745.48 262 1744.28 263.6C1743.28 265 1741.48 266 1739.48 266H1710.48C1707.68 266 1705.28 264.2 1704.68 261.6L1697.68 237H1671.08L1664.28 261.6C1663.48 264.2 1661.08 266 1658.48 266H1629.48C1627.48 266 1625.68 265 1624.68 263.6C1623.48 262 1623.08 260 1623.68 258.2L1664.28 123.8C1665.08 121.2 1667.48 119.6 1670.08 119.6H1698.88C1701.48 119.6 1703.88 121.2 1704.68 123.8ZM1695.48 204.4L1684.28 167.4L1672.48 204.4H1695.48ZM1856.81 231.8C1860.01 231.8 1862.81 234.4 1862.81 237.8V260C1862.81 263.2 1860.01 266 1856.81 266H1775.61C1772.21 266 1769.41 263.2 1769.41 260V125.6C1769.41 122.2 1772.21 119.6 1775.61 119.6H1803.21C1806.61 119.6 1809.41 122.2 1809.41 125.6V231.8H1856.81ZM773.8 359.6C777 359.6 779.8 362.2 779.8 365.6V500C779.8 503.2 777 506 773.8 506H746C742.8 506 740 503.2 740 500V365.6C740 362.2 742.8 359.6 746 359.6H773.8ZM911.311 359.6C914.511 359.6 917.311 362.2 917.311 365.6V500C917.311 503.2 914.511 506 911.311 506H883.511C881.311 506 879.111 504.8 878.111 502.8L843.511 442.8V500C843.511 503.2 840.711 506 837.511 506H809.711C806.311 506 803.711 503.2 803.711 500V365.6C803.711 362.2 806.311 359.6 809.711 359.6H837.511C839.711 359.6 841.711 360.8 842.711 362.8L876.711 425L877.511 365.6C877.511 362.2 880.111 359.6 883.511 359.6H911.311ZM1047.65 365.6V386C1047.65 389.4 1044.85 392 1041.65 392H1014.05V500C1014.05 503.2 1011.25 506 1007.85 506H980.05C976.65 506 974.05 503.2 974.05 500V392H947.25C944.05 392 941.25 389.4 941.25 386V365.6C941.25 362.2 944.05 359.6 947.25 359.6H1041.65C1044.85 359.6 1047.65 362.2 1047.65 365.6ZM1077.56 506C1074.16 506 1071.56 503.2 1071.56 500V365.6C1071.56 362.2 1074.16 359.6 1077.56 359.6H1157.56C1160.96 359.6 1163.56 362.2 1163.56 365.6V386C1163.56 389.4 1160.96 392 1157.56 392H1111.36V414.2H1147.56C1150.96 414.2 1153.56 417 1153.56 420.2V440.6C1153.56 444 1152.56 446.6 1149.16 446.6H1111.36V473.6H1157.76C1161.16 473.6 1163.76 476.2 1163.76 479.6V500C1163.76 503.2 1161.16 506 1157.76 506H1077.56ZM1275.21 471.8C1278.41 471.8 1281.21 474.4 1281.21 477.8V500C1281.21 503.2 1278.41 506 1275.21 506H1194.01C1190.61 506 1187.81 503.2 1187.81 500V365.6C1187.81 362.2 1190.61 359.6 1194.01 359.6H1221.61C1225.01 359.6 1227.81 362.2 1227.81 365.6V471.8H1275.21ZM1392.63 471.8C1395.83 471.8 1398.63 474.4 1398.63 477.8V500C1398.63 503.2 1395.83 506 1392.63 506H1311.43C1308.03 506 1305.23 503.2 1305.23 500V365.6C1305.23 362.2 1308.03 359.6 1311.43 359.6H1339.03C1342.43 359.6 1345.23 362.2 1345.23 365.6V471.8H1392.63ZM1456.46 359.6C1459.66 359.6 1462.46 362.2 1462.46 365.6V500C1462.46 503.2 1459.66 506 1456.46 506H1428.66C1425.46 506 1422.66 503.2 1422.66 500V365.6C1422.66 362.2 1425.46 359.6 1428.66 359.6H1456.46ZM1595.97 484C1591.37 490 1584.77 495.2 1576.17 499.6C1567.77 503.8 1556.77 506 1543.57 506C1526.77 506 1512.77 501.2 1502.37 491.8C1491.77 482.2 1486.37 468.4 1486.37 451.2V410.4C1486.37 393.2 1491.57 379.6 1501.97 370C1512.17 360.4 1525.57 355.6 1542.17 355.6C1559.17 355.6 1572.37 359.6 1581.37 367.6C1590.77 375.6 1595.17 387.2 1594.97 401.8C1594.97 402.4 1594.77 403 1594.57 403.6L1594.37 404.2C1593.57 406.6 1591.37 408.2 1588.77 408.2H1562.57C1559.37 408.2 1556.57 405.6 1556.57 402.2C1556.57 398.6 1555.97 393.8 1553.57 391.2C1551.37 389.2 1547.77 388.2 1542.77 388.2C1537.57 388.2 1533.57 389.8 1530.77 393C1527.77 396.6 1526.17 402.4 1526.17 410.2V451.2C1526.17 459.2 1527.77 465.2 1530.77 468.6C1533.77 472 1537.97 473.6 1543.57 473.6C1549.37 473.6 1552.57 472.8 1554.17 472.2C1555.37 471.6 1558.17 470.4 1561.97 467.8L1561.77 456.4H1554.17C1550.77 456.4 1548.17 453.6 1548.17 450.4L1543.77 432.4C1543.77 429 1546.37 426.2 1549.77 426.2H1591.17C1594.57 426.2 1597.17 429 1597.17 432.4V480.2C1597.17 481.6 1596.77 482.8 1595.97 484ZM1627.17 506C1623.77 506 1621.17 503.2 1621.17 500V365.6C1621.17 362.2 1623.77 359.6 1627.17 359.6H1707.17C1710.57 359.6 1713.17 362.2 1713.17 365.6V386C1713.17 389.4 1710.57 392 1707.17 392H1660.97V414.2H1697.17C1700.57 414.2 1703.17 417 1703.17 420.2V440.6C1703.17 444 1702.17 446.6 1698.77 446.6H1660.97V473.6H1707.37C1710.77 473.6 1713.37 476.2 1713.37 479.6V500C1713.37 503.2 1710.77 506 1707.37 506H1627.17ZM1845.02 359.6C1848.22 359.6 1851.02 362.2 1851.02 365.6V500C1851.02 503.2 1848.22 506 1845.02 506H1817.22C1815.02 506 1812.82 504.8 1811.82 502.8L1777.22 442.8V500C1777.22 503.2 1774.42 506 1771.22 506H1743.42C1740.02 506 1737.42 503.2 1737.42 500V365.6C1737.42 362.2 1740.02 359.6 1743.42 359.6H1771.22C1773.42 359.6 1775.42 360.8 1776.42 362.8L1810.42 425L1811.22 365.6C1811.22 362.2 1813.82 359.6 1817.22 359.6H1845.02ZM1983.76 456.8C1984.16 473 1979.36 485.4 1969.96 493.8C1960.76 501.8 1947.76 506 1931.36 506C1914.36 506 1900.56 501.2 1890.36 491.6C1880.16 482 1874.96 468.2 1874.96 450.8V411C1874.96 393.8 1879.96 380 1889.96 370.2C1899.76 360.6 1913.16 355.6 1929.56 355.6C1946.76 355.6 1960.16 359.8 1969.56 367.8C1979.56 376.2 1984.36 388.6 1983.96 405C1983.96 405.6 1983.76 406.2 1983.56 406.8L1983.36 407.4C1982.56 409.8 1980.36 411.4 1977.76 411.4H1950.76C1947.36 411.4 1947.36 408.6 1947.36 405.4C1947.36 396.2 1942.76 392.6 1941.56 391.4C1939.56 389.2 1935.36 388.2 1929.56 388.2C1922.96 388.2 1920.36 390.8 1918.76 392.8C1916.16 396.4 1914.76 402.6 1914.76 410.8V450.8C1914.76 459.2 1916.16 465.2 1919.16 468.8C1921.56 472 1925.56 473.6 1931.36 473.6C1936.36 473.6 1939.76 472.6 1941.56 470.6C1942.76 469.2 1947.36 465.6 1947.36 456.2C1947.36 453 1947.36 450.2 1950.76 450.2H1977.56C1980.16 450.2 1982.36 451.8 1983.16 454.2L1983.36 454.8C1983.76 455.4 1983.76 456 1983.76 456.8ZM2014.01 506C2010.61 506 2008.01 503.2 2008.01 500V365.6C2008.01 362.2 2010.61 359.6 2014.01 359.6H2094.01C2097.41 359.6 2100.01 362.2 2100.01 365.6V386C2100.01 389.4 2097.41 392 2094.01 392H2047.81V414.2H2084.01C2087.41 414.2 2090.01 417 2090.01 420.2V440.6C2090.01 444 2089.01 446.6 2085.61 446.6H2047.81V473.6H2094.21C2097.61 473.6 2100.21 476.2 2100.21 479.6V500C2100.21 503.2 2097.61 506 2094.21 506H2014.01Z" fill="white"/>
</svg>
